<svg width="84" height="84" viewBox="0 0 84 84" fill="none" xmlns="http://www.w3.org/2000/svg">
<path d="M10.3819 28.8036C10.3855 28.7795 10.3901 28.7555 10.3956 28.7316C10.7539 26.8237 11.3486 24.9986 12.1481 23.2872C12.1701 23.222 12.1995 23.159 12.2361 23.099C12.9799 21.5441 13.8932 20.0852 14.9524 18.7467C14.9916 18.6809 15.0382 18.6184 15.095 18.5616C15.1026 18.554 15.111 18.5475 15.1189 18.5401C16.1592 17.2557 17.3351 16.0855 18.6245 15.051C18.6318 15.0433 18.6382 15.0351 18.6457 15.0275C18.704 14.9694 18.7684 14.9214 18.8363 14.8818C20.1801 13.8293 21.6442 12.9236 23.2035 12.1875C23.2629 12.1511 23.3254 12.1222 23.3899 12.1004C25.1111 11.3066 26.9461 10.7188 28.8638 10.3705C28.8876 10.3651 28.9116 10.3606 28.9357 10.3571C30.2497 10.1225 31.602 10 32.9824 10C34.044 10 35.0884 10.074 36.112 10.2139C36.1152 10.2141 36.1185 10.2149 36.1219 10.2153C45.8286 11.5473 53.6225 18.9626 55.5208 28.4799C58.0122 28.9762 60.4116 29.8821 62.6115 31.1699C63.0592 31.432 63.2096 32.0074 62.9476 32.4551C62.6855 32.9029 62.11 33.0532 61.6625 32.7913C59.8424 31.7257 57.8729 30.9452 55.8266 30.468C55.9169 31.294 55.9648 32.1326 55.9648 32.9824C55.9648 34.3615 55.8424 35.7126 55.6084 37.0254C55.6046 37.0511 55.6 37.0767 55.5941 37.1021C55.2459 39.0191 54.6581 40.8535 53.8646 42.5741C53.8428 42.6389 53.8136 42.7015 53.7773 42.7611C53.041 44.3202 52.1356 45.7842 51.0831 47.1281C51.0434 47.196 50.9955 47.2604 50.9373 47.3186C50.9299 47.3261 50.9218 47.3324 50.9141 47.3395C49.8795 48.629 48.7093 49.805 47.4246 50.8456C47.4172 50.8535 47.4108 50.8617 47.4031 50.8694C47.3465 50.926 47.284 50.9728 47.2183 51.0119C45.8796 52.0711 44.4207 52.9845 42.8659 53.7282C42.8059 53.765 42.7428 53.7943 42.6776 53.8162C40.966 54.616 39.1406 55.2108 37.2324 55.569C37.209 55.5744 37.1855 55.5789 37.1619 55.5825C35.8061 55.8326 34.4094 55.9645 32.9824 55.9645C32.1324 55.9645 31.2935 55.9166 30.4673 55.8262C32.6494 65.1535 41.035 72.121 51.0177 72.121C62.6544 72.121 72.1215 62.6539 72.1215 51.0173C72.1215 45.1495 69.7707 39.6987 65.5024 35.6689C65.1251 35.3127 65.1081 34.7183 65.4641 34.341C65.8204 33.9637 66.4149 33.9467 66.792 34.3027C69.0441 36.429 70.8166 38.9384 72.06 41.7612C73.3471 44.6846 74 47.7987 74 51.0176C74 63.6902 63.69 74 51.0175 74C39.8857 74 30.5784 66.0445 28.4793 55.5206C18.9064 53.6111 11.4591 45.7374 10.1914 35.9514C10.1908 35.9456 10.1895 35.94 10.189 35.9344C10.0645 34.9676 10 33.9824 10 32.9824C10 31.5556 10.1319 30.1591 10.3819 28.8036ZM15.8624 20.6573C15.2354 21.5259 14.6719 22.4432 14.1808 23.4035L30.826 40.0487C31.3397 39.1069 31.9179 38.2051 32.5536 37.3485L15.8624 20.6573ZM17.0359 19.1736L33.741 35.8787C34.43 35.0934 35.1709 34.3546 35.9596 33.6694L19.2561 16.966C18.4631 17.6465 17.7205 18.3842 17.0359 19.1736ZM20.7454 15.7981L37.4366 32.4895C38.297 31.8571 39.2025 31.2826 40.1479 30.7729L23.5052 14.1301C22.5407 14.6169 21.6183 15.1747 20.7454 15.7981ZM28.7627 12.3028C27.5842 12.543 26.4412 12.8821 25.3425 13.3104L41.9385 29.9062C42.9982 29.4487 44.0985 29.0681 45.233 28.7729L28.7627 12.3028ZM35.5839 12.0391C34.7311 11.9337 33.863 11.8786 32.9823 11.8786C32.3418 11.8786 31.7083 11.9089 31.082 11.965L47.4324 28.3154C48.6009 28.1316 49.7981 28.0352 51.0175 28.0352C51.2084 28.0352 51.399 28.04 51.5895 28.0448L35.5839 12.0391ZM38.9375 12.7356L53.2291 27.0274C51.209 20.1709 45.7939 14.7556 38.9375 12.7356ZM53.9995 34.8827C54.0557 34.2564 54.086 33.6229 54.086 32.9824C54.086 32.1016 54.0309 31.2335 53.9255 30.3808L53.6216 30.0769C52.7605 29.9701 51.891 29.9139 51.0174 29.9139C50.3769 29.9139 49.7434 29.9441 49.1171 30.0002L53.9995 34.8827ZM53.662 37.2019L46.7981 30.338C45.6195 30.5781 44.4766 30.9172 43.3779 31.3456L52.6545 40.6224C53.0826 39.5235 53.4219 38.3805 53.662 37.2019ZM50.1665 45.2194C50.79 44.3464 51.3479 43.4239 51.8346 42.4595L41.5404 32.1653C40.576 32.6521 39.6535 33.2099 38.7805 33.8334L50.1665 45.2194ZM48.9988 46.7086L37.2914 35.0012C36.4984 35.6819 35.7557 36.4195 35.0711 37.2089L46.791 48.9287C47.5805 48.2442 48.3181 47.5016 48.9988 46.7086ZM45.3075 50.1022L33.8976 38.6925C33.2705 39.5611 32.7071 40.4784 32.216 41.4386L42.5615 51.7841C43.5216 51.2928 44.439 50.7292 45.3075 50.1022ZM37.3278 53.6353C38.5011 53.3888 39.6391 53.0451 40.7324 52.6119L31.388 43.2676C30.9549 44.3609 30.6112 45.4989 30.3646 46.6722L37.3278 53.6353ZM30.0545 53.4469L30.553 53.9454C31.3504 54.0372 32.1608 54.0861 32.9824 54.0861C33.6706 54.0861 34.351 54.0519 35.0226 53.9871L30.0129 48.9774C29.9481 49.6489 29.9139 50.3293 29.9139 51.0176C29.9139 51.8392 29.9626 52.6495 30.0545 53.4469ZM28.8054 45.113C29.1061 43.983 29.491 42.8872 29.9528 41.8325L13.3527 25.2326C12.9196 26.3259 12.576 27.4639 12.3295 28.6371L28.8054 45.113ZM27.2433 53.2928L12.6719 38.7213C14.6614 45.7526 20.2121 51.3033 27.2433 53.2928ZM12.0192 35.4116L28.0404 51.4328C28.0379 51.2945 28.0351 51.1564 28.0351 51.0175C28.0351 49.7525 28.1395 48.5116 28.3371 47.3016L11.9775 30.9421C11.9128 31.6136 11.8785 32.294 11.8785 32.9824C11.8786 33.804 11.9275 34.6144 12.0192 35.4116Z" fill="#29339F"/>
</svg>
