<svg width="84" height="84" viewBox="0 0 84 84" fill="none" xmlns="http://www.w3.org/2000/svg">
<path d="M56.95 70.8C56.95 72.073 56.4443 73.2939 55.5441 74.1941C54.6439 75.0943 53.423 75.6 52.15 75.6H18.55C17.2769 75.6 16.056 75.0943 15.1559 74.1941C14.2557 73.2939 13.75 72.073 13.75 70.8V13.2C13.75 11.927 14.2557 10.7061 15.1559 9.80589C16.056 8.90571 17.2769 8.4 18.55 8.4H52.15C53.423 8.4 54.6439 8.90571 55.5441 9.80589C56.4443 10.7061 56.95 11.927 56.95 13.2H59.35C59.3481 11.291 58.5889 9.46079 57.239 8.11094C55.8892 6.76109 54.0589 6.00191 52.15 6H18.55C16.641 6.00191 14.8108 6.76109 13.4609 8.11094C12.1111 9.46079 11.3519 11.291 11.35 13.2V70.8C11.3519 72.709 12.1111 74.5392 13.4609 75.8891C14.8108 77.2389 16.641 77.9981 18.55 78H52.15C54.0589 77.9981 55.8892 77.2389 57.239 75.8891C58.5889 74.5392 59.3481 72.709 59.35 70.8V63.6H56.95V70.8Z" fill="#29339F"/>
<path d="M32.95 73.2H37.75C38.7048 73.2 39.6204 72.8207 40.2956 72.1456C40.9707 71.4705 41.35 70.5548 41.35 69.6C41.35 68.6452 40.9707 67.7295 40.2956 67.0544C39.6204 66.3793 38.7048 66 37.75 66H32.95C31.9952 66 31.0795 66.3793 30.4044 67.0544C29.7293 67.7295 29.35 68.6452 29.35 69.6C29.35 70.5548 29.7293 71.4705 30.4044 72.1456C31.0795 72.8207 31.9952 73.2 32.95 73.2ZM32.95 68.4H37.75C38.0682 68.4 38.3735 68.5264 38.5985 68.7515C38.8235 68.9765 38.95 69.2817 38.95 69.6C38.95 69.9183 38.8235 70.2235 38.5985 70.4485C38.3735 70.6736 38.0682 70.8 37.75 70.8H32.95C32.6317 70.8 32.3265 70.6736 32.1014 70.4485C31.8764 70.2235 31.75 69.9183 31.75 69.6C31.75 69.2817 31.8764 68.9765 32.1014 68.7515C32.3265 68.5264 32.6317 68.4 32.95 68.4Z" fill="#29339F"/>
<path d="M26.95 10.8H29.35V13.2H26.95V10.8Z" fill="#29339F"/>
<path d="M31.75 10.8H38.95V13.2H31.75V10.8Z" fill="#29339F"/>
<path d="M42.5501 42V34.8C42.5428 32.462 43.3015 30.186 44.7101 28.32L42.7901 26.88C41.0696 29.1613 40.1425 31.9427 40.1501 34.8V42C40.1381 45.2758 41.3494 48.438 43.5469 50.8674C45.7443 53.2968 48.7695 54.8183 52.0301 55.134L52.2701 52.746C49.6023 52.488 47.1269 51.2431 45.329 49.2554C43.531 47.2677 42.54 44.6802 42.5501 42Z" fill="#29339F"/>
<path d="M64.1499 42C64.1599 44.6802 63.1689 47.2677 61.371 49.2554C59.573 51.2431 57.0977 52.488 54.4299 52.746L54.6699 55.134C57.9304 54.8183 60.9556 53.2967 63.153 50.8674C65.3505 48.438 66.5618 45.2758 66.5499 42V37.2H64.1499V42Z" fill="#29339F"/>
<path d="M53.3499 21.6C50.4926 21.5924 47.7112 22.5196 45.4299 24.24L46.8699 26.16C48.7359 24.7514 51.0119 23.9928 53.3499 24C56.2132 24.0032 58.9584 25.1421 60.9831 27.1668C63.0078 29.1915 64.1467 31.9367 64.1499 34.8H66.5499C66.5457 31.3004 65.1537 27.9454 62.6791 25.4708C60.2045 22.9962 56.8495 21.6042 53.3499 21.6Z" fill="#29339F"/>
<path d="M61.7499 42V34.8C61.7499 32.5722 60.865 30.4356 59.2896 28.8603C57.7143 27.285 55.5778 26.4 53.3499 26.4C51.1221 26.4 48.9856 27.285 47.4103 28.8603C45.8349 30.4356 44.95 32.5722 44.95 34.8H47.35C47.35 33.2087 47.9821 31.6826 49.1073 30.5574C50.2325 29.4321 51.7586 28.8 53.3499 28.8C54.9412 28.8 56.4674 29.4321 57.5926 30.5574C58.7178 31.6826 59.3499 33.2087 59.3499 34.8V42H61.7499Z" fill="#29339F"/>
<path d="M61.2699 44.7996L59.0055 44.0004C58.5331 45.334 57.6046 46.4577 56.3841 47.1732C55.1635 47.8886 53.7294 48.1497 52.335 47.9104C50.9406 47.6711 49.6757 46.9467 48.7635 45.8653C47.8513 44.7838 47.3507 43.4148 47.35 42V37.2H44.95V42C44.9498 43.9817 45.6502 45.8996 46.9275 47.4148C48.2047 48.93 49.9766 49.9448 51.9297 50.2798C53.8829 50.6149 55.8916 50.2486 57.6008 49.2458C59.31 48.2429 60.6096 46.6681 61.2699 44.7996Z" fill="#29339F"/>
<path d="M53.35 43.2C53.0317 43.2 52.7265 43.0736 52.5015 42.8485C52.2764 42.6235 52.15 42.3183 52.15 42H49.75C49.75 42.9548 50.1293 43.8705 50.8044 44.5456C51.4795 45.2207 52.3952 45.6 53.35 45.6C54.3048 45.6 55.2204 45.2207 55.8956 44.5456C56.5707 43.8705 56.95 42.9548 56.95 42V34.8C56.95 33.8452 56.5707 32.9296 55.8956 32.2544C55.2204 31.5793 54.3048 31.2 53.35 31.2C52.3952 31.2 51.4795 31.5793 50.8044 32.2544C50.1293 32.9296 49.75 33.8452 49.75 34.8V39.6H52.15V34.8C52.15 34.4818 52.2764 34.1765 52.5015 33.9515C52.7265 33.7264 53.0317 33.6 53.35 33.6C53.6683 33.6 53.9735 33.7264 54.1985 33.9515C54.4236 34.1765 54.55 34.4818 54.55 34.8V42C54.55 42.3183 54.4236 42.6235 54.1985 42.8485C53.9735 43.0736 53.6683 43.2 53.35 43.2Z" fill="#29339F"/>
<path d="M53.35 15.6C47.3051 15.6067 41.5097 18.011 37.2353 22.2853C32.9609 26.5597 30.5567 32.3551 30.55 38.4V60C30.55 60.3183 30.6764 60.6235 30.9015 60.8485C31.1265 61.0736 31.4317 61.2 31.75 61.2H53.35C59.3969 61.2 65.1962 58.7979 69.472 54.522C73.7478 50.2462 76.15 44.4469 76.15 38.4C76.15 32.3531 73.7478 26.5538 69.472 22.278C65.1962 18.0021 59.3969 15.6 53.35 15.6ZM53.35 58.8H32.95V38.4C32.95 34.3653 34.1464 30.4211 36.388 27.0664C38.6296 23.7116 41.8156 21.0969 45.5432 19.5529C49.2709 18.0088 53.3726 17.6048 57.3298 18.392C61.287 19.1791 64.922 21.122 67.775 23.975C70.628 26.828 72.5709 30.4629 73.358 34.4202C74.1451 38.3774 73.7411 42.4791 72.1971 46.2067C70.6531 49.9344 68.0384 53.1204 64.6836 55.362C61.3289 57.6036 57.3847 58.8 53.35 58.8Z" fill="#29339F"/>
</svg>
