<svg width="40" height="40" viewBox="0 0 40 40" fill="none" xmlns="http://www.w3.org/2000/svg">
<path d="M39.4141 38.8281H38.8281V23.2031H39.4141C39.7377 23.2031 40 22.9409 40 22.6172C40 22.2935 39.7377 22.0312 39.4141 22.0312H29.8521V20.2847L30.251 20.4191C30.5499 20.5202 30.8889 20.3609 30.9934 20.0508C31.0966 19.7441 30.9317 19.4118 30.6251 19.3085L28.2031 18.4927V14.4155H28.7891C29.1127 14.4155 29.375 14.1532 29.375 13.8295C29.375 13.5059 29.1127 13.2436 28.7891 13.2436H28.1814C27.8878 9.24875 24.6178 6.06852 20.5859 5.91641V5.07812H25.3125C26.0663 5.07812 26.6797 4.46477 26.6797 3.71094V1.36719C26.6797 0.613359 26.0663 0 25.3125 0H20C19.6764 0 19.4141 0.262266 19.4141 0.585938V5.91656C17.7127 5.98211 16.0629 6.59828 14.7387 7.66953C14.4871 7.87305 14.4481 8.24203 14.6516 8.49359C14.8552 8.74523 15.2242 8.78422 15.4757 8.58063C16.6703 7.61414 18.1763 7.08188 19.7162 7.08188H20.2837C23.8067 7.08188 26.706 9.79641 27.0041 13.2435H12.9948C13.0957 12.0674 13.4991 10.9469 14.1785 9.97328C14.3637 9.70789 14.2987 9.34266 14.0333 9.1575C13.7679 8.9725 13.4027 9.03727 13.2174 9.30266C12.4001 10.4741 11.922 11.8261 11.8186 13.2435H11.2109C10.8873 13.2435 10.625 13.5058 10.625 13.8295C10.625 14.1531 10.8873 14.4154 11.2109 14.4154H11.7969V18.4927L9.37492 19.3084C9.06828 19.4117 8.90336 19.7441 9.00664 20.0507C9.11 20.3574 9.44234 20.5222 9.74898 20.419L10.1479 20.2846V22.0312H0.585938C0.262344 22.0312 0 22.2935 0 22.6172C0 22.9409 0.262344 23.2031 0.585938 23.2031H1.17188V38.8281H0.585938C0.262344 38.8281 0 39.0904 0 39.4141C0 39.7377 0.262344 40 0.585938 40H39.4141C39.7377 40 40 39.7377 40 39.4141C40 39.0904 39.7377 38.8281 39.4141 38.8281ZM20.5859 1.17188H25.3125C25.4202 1.17188 25.5078 1.25945 25.5078 1.36719V3.71094C25.5078 3.81867 25.4202 3.90625 25.3125 3.90625H20.5859V1.17188ZM12.9688 14.4155H27.0312V18.098L21.1845 16.1287C20.4207 15.8714 19.5795 15.8715 18.8155 16.1287L12.9688 18.098V14.4155ZM11.3198 19.8899L19.1896 17.2393C19.7123 17.0634 20.288 17.0634 20.8105 17.2393L28.6803 19.8899V22.0312H11.3198V19.8899ZM7.63438 38.8281H4.6875V36.4844H7.63438V38.8281ZM7.63438 35.3125H4.6875V33.3417C4.6875 32.5293 5.34844 31.8684 6.16094 31.8684C6.97344 31.8684 7.63438 32.5293 7.63438 33.3417V35.3125ZM9.97812 38.8281H8.80625V33.3417C8.80625 31.8831 7.61961 30.6965 6.16094 30.6965C4.70227 30.6965 3.51562 31.8831 3.51562 33.3417V38.8281H2.34375V29.601H9.97812V38.8281ZM9.97812 28.4291H2.34375V23.2031H8.06227V24.4141C8.06227 25.3833 8.85078 26.1719 9.82008 26.1719H9.97805V28.4291H9.97812ZM13.6156 38.8281H11.15V26.1719H13.6157V38.8281H13.6156ZM17.4255 38.8281H14.7875V26.1719H17.4255V38.8281ZM21.063 38.8281H18.5974V26.1719H21.063V38.8281ZM25.2125 38.8281H22.235V26.1719H22.3913C22.7149 26.1719 22.9773 25.9096 22.9773 25.5859C22.9773 25.2623 22.7149 25 22.3913 25H9.82008C9.49695 25 9.23414 24.7372 9.23414 24.4141V23.2031H30.7658V24.4141C30.7658 24.7372 30.503 25 30.1798 25H24.735C24.4114 25 24.1491 25.2623 24.1491 25.5859C24.1491 25.9096 24.4114 26.1719 24.735 26.1719H25.2124V38.8281H25.2125ZM28.85 38.8281H26.3844V26.1719H28.8501V38.8281H28.85ZM35.3125 38.8281H32.3656V36.4844H35.3125V38.8281ZM35.3125 35.3125H32.3656V33.3417C32.3656 32.5293 33.0266 31.8684 33.8391 31.8684C34.6516 31.8684 35.3125 32.5293 35.3125 33.3417V35.3125ZM37.6562 38.8281H36.4844V33.3417C36.4844 31.8831 35.2977 30.6965 33.8391 30.6965C32.3804 30.6965 31.1938 31.8831 31.1938 33.3417V38.8281H30.0219V29.601H37.6562V38.8281ZM37.6562 28.4291H30.0219V26.1719H30.1798C31.1491 26.1719 31.9377 25.3833 31.9377 24.4141V23.2031H37.6562V28.4291Z" fill="white"/>
</svg>
