<svg width="38" height="32" viewBox="0 0 38 32" fill="none" xmlns="http://www.w3.org/2000/svg">
<path d="M10.875 25.375V24.125H6.49998C5.34254 24.1251 4.22094 23.7236 3.3265 22.989C2.43205 22.2544 1.82019 21.2322 1.59528 20.0968C1.37037 18.9614 1.54635 17.7832 2.0932 16.7631C2.64005 15.743 3.52389 14.9442 4.59395 14.503C4.79129 15.0714 5.03703 15.6218 5.32845 16.1482L6.42143 15.5417C5.694 14.2246 5.29429 12.7518 5.25609 11.2478C5.21788 9.74367 5.54231 8.25248 6.20195 6.90022C6.86158 5.54796 7.83704 4.37436 9.0459 3.47859C10.2548 2.58282 11.6615 1.99121 13.1472 1.75376C14.6329 1.51631 16.154 1.63999 17.5818 2.11435C19.0096 2.58871 20.3023 3.39982 21.3506 4.47912C22.3988 5.55842 23.1719 6.8742 23.6044 8.31527C24.0369 9.75633 24.1161 11.2803 23.8354 12.7585L25.0635 12.9915C25.1742 12.4055 25.2358 11.8113 25.2475 11.215C25.809 11.0163 26.4097 10.9541 27.0001 11.0335C27.5904 11.1129 28.1534 11.3317 28.6424 11.6718L29.3576 10.6466C28.7586 10.2297 28.0757 9.94889 27.3568 9.8239C26.6378 9.69892 25.9002 9.73277 25.1957 9.92307C24.6543 4.5683 20.1201 0.375 14.625 0.375C8.76633 0.375 3.99998 5.14135 3.99998 11C4.0003 11.7718 4.08446 12.5414 4.25099 13.295C2.88958 13.8199 1.75477 14.8047 1.04328 16.0786C0.331791 17.3525 0.0884869 18.8351 0.355546 20.2696C0.622605 21.7041 1.38319 22.9998 2.50545 23.9323C3.6277 24.8648 5.04088 25.3752 6.49998 25.375H10.875Z" fill="white"/>
<path d="M32.125 14.125H30.875V15.375H32.125C33.0882 15.3751 34.0244 15.6931 34.7885 16.2795C35.5526 16.866 36.1018 17.6881 36.351 18.6185C36.6002 19.5489 36.5355 20.5355 36.1668 21.4254C35.7982 22.3152 35.1462 23.0585 34.312 23.5401L34.938 24.6221C36.0102 24.0028 36.8482 23.047 37.322 21.903C37.7957 20.7589 37.8788 19.4905 37.5583 18.2945C37.2378 17.0984 36.5316 16.0415 35.5492 15.2877C34.5669 14.5338 33.3633 14.1251 32.125 14.125Z" fill="white"/>
<path d="M33.375 19.125C33.375 19.0429 33.3588 18.9617 33.3274 18.8858C33.296 18.81 33.25 18.7411 33.1919 18.6831C33.1339 18.625 33.065 18.579 32.9892 18.5476C32.9133 18.5162 32.8321 18.5 32.75 18.5H27.75C27.6679 18.5 27.5867 18.5162 27.5108 18.5476C27.435 18.579 27.3661 18.625 27.3081 18.6831C27.25 18.7411 27.204 18.81 27.1726 18.8858C27.1412 18.9617 27.125 19.0429 27.125 19.125V30.375H25.875V22.875C25.875 22.7929 25.8588 22.7117 25.8274 22.6358C25.796 22.56 25.75 22.4911 25.6919 22.4331C25.6339 22.375 25.565 22.329 25.4892 22.2976C25.4133 22.2662 25.3321 22.25 25.25 22.25H20.25C20.1679 22.25 20.0867 22.2662 20.0108 22.2976C19.935 22.329 19.8661 22.375 19.8081 22.4331C19.75 22.4911 19.704 22.56 19.6726 22.6358C19.6412 22.7117 19.625 22.7929 19.625 22.875V30.375H18.375V21.625C18.375 21.5429 18.3588 21.4617 18.3274 21.3858C18.296 21.31 18.25 21.2411 18.1919 21.1831C18.1339 21.125 18.065 21.079 17.9892 21.0476C17.9134 21.0162 17.8321 21 17.75 21H12.75C12.6679 21 12.5866 21.0162 12.5108 21.0476C12.435 21.079 12.3661 21.125 12.3081 21.1831C12.25 21.2411 12.204 21.31 12.1726 21.3858C12.1412 21.4617 12.125 21.5429 12.125 21.625V30.375H10.875V27.25C10.875 27.1679 10.8588 27.0867 10.8274 27.0108C10.796 26.935 10.75 26.8661 10.6919 26.8081C10.6339 26.75 10.565 26.704 10.4892 26.6726C10.4134 26.6412 10.3321 26.625 10.25 26.625H5.25C5.16792 26.625 5.08665 26.6412 5.01082 26.6726C4.93499 26.704 4.86609 26.75 4.80805 26.8081C4.75002 26.8661 4.70398 26.935 4.67257 27.0108C4.64116 27.0867 4.625 27.1679 4.625 27.25V30.375H3.375V31.625H34.625V30.375H33.375V19.125ZM5.875 30.375V27.875H9.625V30.375H5.875ZM13.375 30.375V22.25H17.125V30.375H13.375ZM20.875 30.375V23.5H24.625V30.375H20.875ZM28.375 30.375V19.75H32.125V30.375H28.375Z" fill="white"/>
<path d="M22.6266 19.6145L15.5295 16.066C15.4208 16.0116 15.2986 15.9902 15.1779 16.0042C15.0572 16.0182 14.9432 16.0671 14.8499 16.1449L7.34985 22.3949L8.1501 23.3551L15.3361 17.3668L22.4705 20.934C22.5878 20.9927 22.7206 21.0129 22.8501 20.9919C22.9796 20.9709 23.0992 20.9097 23.1919 20.8169L33.375 10.6339V12.875H34.625V9.125C34.625 9.04292 34.6088 8.96165 34.5774 8.88582C34.546 8.80999 34.5 8.74109 34.4419 8.68305C34.3839 8.62502 34.315 8.57898 34.2392 8.54757C34.1633 8.51616 34.0821 8.5 34 8.5H30.25V9.75H32.4911L22.6266 19.6145Z" fill="white"/>
</svg>
