<svg width="40" height="30" viewBox="0 0 40 30" fill="none" xmlns="http://www.w3.org/2000/svg">
<path d="M39.3156 14.3916H35.9316C37.3384 11.1977 37.1863 8.61216 36.654 6.86311C35.7414 3.74524 32.6616 0.361206 28.0989 0.361206C26.8821 0.361206 25.6654 0.589343 24.4106 1.04562C22.2433 1.8441 20.7985 2.71862 20.1521 3.17489C19.5057 2.71862 18.0989 1.8441 15.8935 1.04562C14.6388 0.589343 13.384 0.361206 12.2053 0.361206C7.64259 0.361206 4.56274 3.74524 3.65019 6.86311C3.11787 8.72622 2.92776 11.5399 4.71483 15.076H0.608365C0.26616 15.076 0 15.3422 0 15.6844C0 16.0266 0.26616 16.2928 0.608365 16.2928H5.43726C5.62738 16.635 5.85551 16.9772 6.12167 17.3194C10.076 23.0228 18.6692 29.2205 20.2281 29.6007V29.6388C20.2281 29.6388 20.2662 29.6388 20.3042 29.6007C20.3422 29.6007 20.3802 29.6007 20.4183 29.6007V29.5627C21.7491 28.9163 30 23.5931 34.3346 17.2814C34.7529 16.711 35.0951 16.1407 35.3992 15.5703H39.3916C39.7338 15.5703 40 15.3042 40 14.962C40 14.6198 39.6578 14.3916 39.3156 14.3916ZM33.2319 16.635C29.2015 22.5285 21.7871 27.2814 20.1901 28.308C18.5551 27.2814 11.1787 22.4905 7.11027 16.635C7.03422 16.5209 6.95818 16.4068 6.88213 16.2928H12.4715C12.6996 16.2928 12.9278 16.1787 13.0418 15.9506L15.5894 10.9315L19.5818 21.1597C19.6578 21.3878 19.924 21.5399 20.1521 21.5399C20.1521 21.5399 20.1521 21.5399 20.1901 21.5399C20.4563 21.5399 20.6844 21.3498 20.7605 21.0836L24.2586 9.10645L26.1217 15.1521C26.1977 15.3802 26.3878 15.5323 26.616 15.5703C26.8441 15.6084 27.0722 15.4943 27.2243 15.3042L28.7072 13.1369L29.962 15.2661C30.076 15.4563 30.2662 15.5703 30.4943 15.5703H33.9164C33.6882 15.9506 33.4601 16.2928 33.2319 16.635ZM34.6008 14.3916H30.8745L29.3156 11.73C29.2015 11.5399 29.0114 11.4258 28.7833 11.4258C28.5551 11.4258 28.365 11.5019 28.251 11.692L26.9582 13.5931L24.8669 6.78706C24.7909 6.5209 24.5247 6.36881 24.2586 6.33079C23.9924 6.33079 23.7262 6.5209 23.6502 6.78706L20.1141 18.9924L16.2738 9.1825C16.1977 8.95436 15.9696 8.80227 15.7414 8.80227C15.4753 8.80227 15.2852 8.91634 15.1711 9.14448L12.1673 15.038H6.12167C4.60076 12.2623 4.18251 9.60075 4.86692 7.20531C5.6654 4.50569 8.28897 1.61596 12.2433 1.61596C13.308 1.61596 14.4106 1.8441 15.5133 2.22432C18.289 3.25094 19.7719 4.42965 19.8099 4.42965C20.038 4.61976 20.3422 4.61976 20.5703 4.42965C20.5703 4.42965 22.0532 3.25094 24.8669 2.22432C25.9696 1.80607 27.0722 1.61596 28.1369 1.61596C32.0532 1.61596 34.7148 4.50569 35.5133 7.20531C36.1597 9.41063 35.8175 11.8441 34.6008 14.3916Z" fill="white"/>
</svg>
