<svg width="40" height="40" viewBox="0 0 40 40" fill="none" xmlns="http://www.w3.org/2000/svg">
<path d="M9.33337 26.3333C7.12736 26.3333 5.33337 28.1273 5.33337 30.3333C5.33337 32.5393 7.12736 34.3333 9.33337 34.3333C11.5394 34.3333 13.3334 32.5393 13.3334 30.3333C13.3334 28.1273 11.5393 26.3333 9.33337 26.3333ZM9.33337 33C7.86267 33 6.66673 31.8039 6.66673 30.3333C6.66673 28.8626 7.86275 27.6667 9.33337 27.6667C10.804 27.6667 12 28.8627 12 30.3333C12 31.8039 10.804 33 9.33337 33Z" fill="white"/>
<path d="M32 26.3333C29.794 26.3333 28 28.1273 28 30.3333C28 32.5393 29.794 34.3333 32 34.3333C34.206 34.3333 36 32.5393 36 30.3333C36 28.1273 34.206 26.3333 32 26.3333ZM32 33C30.5293 33 29.3334 31.8039 29.3334 30.3333C29.3334 28.8626 30.5294 27.6667 32 27.6667C33.4707 27.6667 34.6666 28.8627 34.6666 30.3333C34.6666 31.8039 33.4707 33 32 33Z" fill="white"/>
<path d="M39.894 22.6394L33.894 13.306C33.7713 13.1153 33.56 13 33.3333 13H26C25.6313 13 25.3334 13.2987 25.3334 13.6666V30.3333C25.3334 30.702 25.6313 30.9999 26 30.9999H28.6667V29.6666H26.6667V14.3334H32.9693L38.6667 23.196V29.6667H35.3333V31H39.3333C39.702 31 39.9999 30.702 39.9999 30.3334V23C40 22.8727 39.9634 22.7466 39.894 22.6394Z" fill="white"/>
<path d="M29.3333 21.6666V17H34.6667V15.6666H28.6667C28.298 15.6666 28.0001 15.9653 28.0001 16.3333V22.3333C28.0001 22.702 28.298 22.9999 28.6667 22.9999H38.6667V21.6666H29.3333V21.6666Z" fill="white"/>
<path d="M26 8.33337H0.666641C0.298672 8.33337 0 8.63205 0 9.00001V30.3334C0 30.702 0.298672 31 0.666641 31H6V29.6667H1.33336V9.66666H25.3334V29.6667H12.6666V31H26C26.3687 31 26.6666 30.702 26.6666 30.3334V9.00001C26.6666 8.63205 26.3687 8.33337 26 8.33337Z" fill="white"/>
<path d="M4.66669 27H0.666687V28.3334H4.66669V27Z" fill="white"/>
<path d="M25.3334 27H14.0001V28.3334H25.3334V27Z" fill="white"/>
<path d="M39.3333 27H36.6666V28.3334H39.3333V27Z" fill="white"/>
<path d="M26 11H2.6666V12.3334H26V11Z" fill="white"/>
<path d="M10 29.6666H8.66666V31H10V29.6666Z" fill="white"/>
<path d="M32.6667 29.6666H31.3333V31H32.6667V29.6666Z" fill="white"/>
<path d="M12 5.66663H2.6666V6.99999H12V5.66663Z" fill="white"/>
<path d="M1.33336 5.66663H0V6.99999H1.33336V5.66663Z" fill="white"/>
</svg>
